<svg width="30" height="30" viewBox="0 0 30 30" fill="none" xmlns="http://www.w3.org/2000/svg">
<g clip-path="url(#clip0_5_2927)">
<path d="M15 0L16.368 5.76C16.8214 7.67292 17.7977 9.42212 19.1878 10.8122C20.5779 12.2023 22.3271 13.1786 24.24 13.632L30 15L24.24 16.368C22.3271 16.8214 20.5779 17.7977 19.1878 19.1878C17.7977 20.5779 16.8214 22.3271 16.368 24.24L15 30L13.632 24.24C13.1786 22.3271 12.2023 20.5779 10.8122 19.1878C9.42212 17.7977 7.67292 16.8214 5.76 16.368L0 15L5.76 13.632C7.67292 13.1786 9.42212 12.2023 10.8122 10.8122C12.2023 9.42212 13.1786 7.67292 13.632 5.76L15 0Z" fill="#739D67"/>
</g>
<defs>
<clipPath id="clip0_5_2927">
<rect width="30" height="30" fill="white"/>
</clipPath>
</defs>
</svg>
